<?xml version="1.0" encoding="UTF-8" standalone="no"?>
<!DOCTYPE svg  PUBLIC '-//W3C//DTD SVG 1.1//EN'  'http://www.w3.org/Graphics/SVG/1.1/DTD/svg11.dtd'>
<svg id="logo-main" stroke-linejoin="round" xmlns="http://www.w3.org/2000/svg" fill-rule="evenodd" xml:space="preserve" height="100%" width="250px" version="1.1" stroke-miterlimit="1.4142" clip-rule="evenodd" xmlns:xlink="http://www.w3.org/1999/xlink" viewBox="0 0 479 438"><g id="logo" fill="#fff"><path id="Rectangle-1" d="m240 403.18l-178-62.433v-236.31l178.5-68.655 177.5 68.698v236.26l-178 62.433zm0-6.36l172-60.329v-227.9l-171.51-66.379-172.49 66.345v227.93l172 60.329z"/><path d="m116.85 213.55h0.288l20.736-20.256h9.408l-22.656 20.544 24.96 24.384h-9.6l-22.848-23.616h-0.288v23.616h-6.528v-72.576h6.528v47.904z" fill-rule="nonzero"/><path d="m191.63 212.3c-0.192-4.224-1.552-7.728-4.08-10.512s-6.128-4.176-10.8-4.176c-2.176 2.8422e-14 -4.192 0.4-6.048 1.2s-3.488 1.888-4.896 3.264-2.528 2.944-3.36 4.704-1.312 3.6-1.44 5.52h30.624zm6.63 2.11v1.44c0 0.512-0.032 1.056-0.096 1.632h-37.248c0.064 2.24 0.512 4.352 1.344 6.336s1.984 3.712 3.456 5.184 3.2 2.64 5.184 3.504 4.128 1.296 6.432 1.296c3.392 0 6.32-0.784 8.784-2.352s4.336-3.376 5.616-5.424l4.896 3.84c-2.688 3.392-5.648 5.824-8.88 7.296s-6.704 2.208-10.416 2.208c-3.328 0-6.416-0.592-9.264-1.776s-5.296-2.832-7.344-4.944-3.664-4.608-4.848-7.488-1.776-6.016-1.776-9.408 0.576-6.528 1.728-9.408 2.752-5.376 4.8-7.488 4.448-3.76 7.2-4.944 5.728-1.776 8.928-1.776c3.52 0 6.624 0.592 9.312 1.776s4.928 2.784 6.72 4.8 3.152 4.368 4.08 7.056 1.392 5.568 1.392 8.64z" fill-rule="nonzero"/><path d="m227.73 231.21h0.192l13.92-37.92h7.104l-22.368 56.544c-1.344 3.456-3.056 6.224-5.136 8.304s-5.072 3.12-8.976 3.12c-1.984 0-3.936-0.192-5.856-0.576l0.672-5.952c1.536 0.512 3.136 0.768 4.8 0.768 2.24 0 4-0.688 5.28-2.064s2.4-3.344 3.36-5.904l3.648-9.408-19.2-44.832h7.296l15.264 37.92z" fill-rule="nonzero"/><path d="m291.47 203.56c-1.088-1.728-2.672-3.152-4.752-4.272s-4.336-1.68-6.768-1.68c-2.624 2.8422e-14 -4.992 0.464-7.104 1.392s-3.92 2.208-5.424 3.84-2.656 3.552-3.456 5.76-1.2 4.592-1.2 7.152 0.4 4.928 1.2 7.104 1.936 4.08 3.408 5.712 3.264 2.912 5.376 3.84 4.48 1.392 7.104 1.392c2.88 0 5.312-0.544 7.296-1.632s3.616-2.496 4.896-4.224l4.896 3.648c-1.92 2.368-4.272 4.256-7.056 5.664s-6.128 2.112-10.032 2.112c-3.648 0-6.944-0.592-9.888-1.776s-5.456-2.832-7.536-4.944-3.696-4.608-4.848-7.488-1.728-6.016-1.728-9.408 0.576-6.528 1.728-9.408 2.768-5.376 4.848-7.488 4.592-3.76 7.536-4.944 6.24-1.776 9.888-1.776c3.008 0 6.064 0.656 9.168 1.968s5.616 3.248 7.536 5.808l-5.088 3.648z" fill-rule="nonzero"/><path d="m314.03 200.68c1.216-2.624 3.232-4.704 6.048-6.24s5.824-2.304 9.024-2.304c5.696 0 9.968 1.696 12.816 5.088s4.272 7.872 4.272 13.44v27.552h-6.528v-24.864c0-2.368-0.192-4.512-0.576-6.432s-1.04-3.568-1.968-4.944-2.176-2.448-3.744-3.216-3.536-1.152-5.904-1.152c-1.728 2.8422e-14 -3.408 0.352-5.04 1.056s-3.088 1.776-4.368 3.216-2.304 3.264-3.072 5.472-1.152 4.816-1.152 7.824v23.04h-6.528v-72.576h6.528v35.04h0.192z" fill-rule="nonzero"/><path d="m369.71 238.22h-6.528v-44.928h6.528v44.928zm1.35-62.21c0 1.344-0.48 2.448-1.44 3.312s-2.016 1.296-3.168 1.296-2.208-0.432-3.168-1.296-1.44-1.968-1.44-3.312 0.48-2.448 1.44-3.312 2.016-1.296 3.168-1.296 2.208 0.432 3.168 1.296 1.44 1.968 1.44 3.312z" fill-rule="nonzero"/><path d="m243.85 154.43h0.019662v6h-44v-6h37.98v-114.81h6v114.81z"/><path d="m187.21 170.33l-0.17408-0.0010943-0.17368-0.0033063-0.1731-0.0054744-0.17284-0.007657-0.17242-0.0098368-0.17179-0.011988-0.1711-0.014113-0.17062-0.016232-0.17029-0.018376-0.16955-0.020478-0.16885-0.02254-0.16831-0.02463-0.16786-0.02672-0.16704-0.028771-0.16626-0.030766-0.16582-0.032852-0.16493-0.034831-0.1643-0.036841-0.16362-0.038854-0.16268-0.040781-0.16181-0.042705-0.16128-0.044705-0.16061-0.046702-0.15949-0.048535-0.15873-0.050446-0.15785-0.052341-0.15697-0.054194-0.15609-0.056066-0.15518-0.057892-0.15441-0.059789-0.15343-0.061591-0.15252-0.063416-0.1514-0.065141-0.15037-0.066872-0.14974-0.068797-0.1485-0.070465-0.14728-0.072068-0.14668-0.073995-0.14541-0.075615-0.14438-0.077288-0.14332-0.079002-0.14227-0.080652-0.14118-0.082341-0.13982-0.083796-0.13903-0.085614-0.1378-0.087187-0.1367-0.08879-0.13548-0.090363-0.13421-0.091836-0.13325-0.093553-0.13197-0.095049-0.13065-0.096493-0.12953-0.09808-0.12828-0.099578-0.12715-0.10115-0.12569-0.1025-0.12442-0.10391-0.12336-0.10558-0.12196-0.10693-0.12063-0.10834-0.11924-0.10968-0.118-0.11116-0.11665-0.11256-0.1153-0.11393-0.11395-0.11532-0.11256-0.11666-0.11117-0.11801-0.10966-0.11922-0.10836-0.12065-0.107-0.12205-0.10539-0.12315-0.10403-0.12451-0.10255-0.1258-0.1011-0.12706-0.09958-0.12831-0.097989-0.12939-0.096631-0.13084-0.094954-0.13185-0.093507-0.13315-0.092017-0.13447-0.090285-0.1354-0.088761-0.13663-0.087099-0.13768-0.085582-0.13892-0.08402-0.14019-0.082236-0.14104-0.080719-0.14235-0.078979-0.14334-0.077265-0.1443-0.075633-0.14549-0.073841-0.14635-0.072203-0.14752-0.070519-0.14866-0.068684-0.14949-0.066962-0.15054-0.06513-0.15142-0.063377-0.15241-0.061617-0.15351-0.059674-0.15411-0.057936-0.15522-0.056126-0.15628-0.054233-0.15706-0.052283-0.15774-0.050466-0.15873-0.048582-0.15972-0.046599-0.16028-0.044712-0.16122-0.042752-0.16199-0.040826-0.16286-0.038824-0.16358-0.036802-0.16411-0.034839-0.16497-0.032816-0.16564-0.03082-0.16644-0.028755-0.16707-0.026711-0.16769-0.024649-0.16844-0.022564-0.16901-0.020438-0.16939-0.018378-0.17011-0.016251-0.17082-0.014127-0.1713-0.011965-0.17177-0.0098271-0.17223-0.0076492-0.17269-0.005501-0.17327-0.0032853-0.17368-0.0011154-0.17408 0.0011154-0.17408 0.0032854-0.17366 0.0055009-0.17327 0.0076487-0.17268 0.0098268-0.17224 0.011966-0.17179 0.014128-0.17129 0.01625-0.1708 0.018378-0.17011 0.020435-0.16937 0.022568-0.16906 0.024654-0.16845 0.026707-0.16766 0.028755-0.16707 0.03082-0.16644 0.032816-0.16564 0.034839-0.16497 0.036792-0.16406 0.038823-0.16359 0.040848-0.16295 0.04274-0.16192 0.044712-0.16125 0.046614-0.16031 0.048567-0.15966 0.050466-0.15873 0.052283-0.15774 0.054233-0.15706 0.056104-0.15621 0.057935-0.15523 0.059724-0.15424 0.061591-0.15343 0.063377-0.15243 0.065161-0.15147 0.066932-0.15047 0.068684-0.14949 0.070519-0.14866 0.072165-0.14744 0.073839-0.14637 0.075673-0.14557 0.077309-0.14438 0.078981-0.14332 0.080673-0.14227 0.082236-0.14104 0.08402-0.14019 0.085582-0.13892 0.087042-0.13759 0.088759-0.13665 0.090405-0.13558 0.091956-0.13436 0.093507-0.13317 0.095021-0.13193 0.096493-0.13065 0.098059-0.12951 0.09958-0.12829 0.1011-0.12708 0.10255-0.12578 0.10403-0.12454 0.10547-0.12323 0.10692-0.12196 0.10827-0.12055 0.10966-0.11923 0.11126-0.11811 0.11265-0.11675 0.11395-0.1153 0.1151-0.11374 0.11665-0.11258 0.11821-0.11136 0.11914-0.10957 0.12063-0.10836 0.12207-0.107 0.12313-0.10539 0.12454-0.10403 0.12569-0.10248 0.12715-0.10117 0.1284-0.099652 0.12941-0.097987 0.13065-0.096493 0.13197-0.095049 0.13311-0.093461 0.13434-0.091947 0.13562-0.090433 0.13656-0.088702 0.13766-0.087099 0.13903-0.085634 0.1401-0.083967 0.14104-0.082236 0.14227-0.080673 0.14332-0.078981 0.14438-0.077309 0.14557-0.075673 0.14637-0.073839 0.14744-0.072165 0.14866-0.070519 0.14942-0.068651 0.15053-0.066964 0.15156-0.06519 0.15236-0.063348 0.15343-0.061591 0.15424-0.059724 0.15517-0.057912 0.15626-0.056126 0.15714-0.054253 0.15768-0.052263 0.15873-0.050466 0.15966-0.048567 0.16026-0.0466 0.16128-0.044726 0.16199-0.042752 0.16286-0.040826 0.16362-0.038833 0.16412-0.036801 0.16493-0.034831 0.16564-0.032816 0.16644-0.03082 0.16722-0.028781 0.16749-0.026662 0.16831-0.024652 0.16921-0.022588 0.16955-0.020457 0.16993-0.018337 0.17062-0.016254 0.17147-0.014143 0.17179-0.011966 0.17224-0.0098264 0.17266-0.0076489 0.17328-0.0055012 0.17368-0.0032853 0.17408-0.0011154 0.17408 0.0011154 0.17368 0.0032853 0.17328 0.0055012 0.17266 0.0076489 0.17224 0.0098264 0.17178 0.011965 0.1715 0.014144 0.1706 0.016254 0.16992 0.018334 0.1696 0.020462 0.1692 0.022589 0.16826 0.024644 0.16751 0.026661 0.16725 0.028786 0.16644 0.03082 0.16564 0.032816 0.16497 0.034839 0.16411 0.036802 0.16358 0.038824 0.16286 0.040826 0.16199 0.042752 0.16122 0.044712 0.16028 0.046599 0.15972 0.048582 0.15873 0.050466 0.15774 0.052283 0.15706 0.054233 0.15628 0.056126 0.15522 0.057936 0.15411 0.059674 0.15351 0.061617 0.15241 0.063377 0.15142 0.06513 0.15062 0.066995 0.1494 0.068651 0.14861 0.070482 0.14759 0.072239 0.14635 0.073841 0.14549 0.075633 0.1443 0.077265 0.14334 0.078979 0.14235 0.080719 0.14113 0.082287 0.14008 0.083969 0.13886 0.085527 0.13777 0.087153 0.13663 0.088761 0.13553 0.090374 0.13434 0.091947 0.13302 0.093395 0.13208 0.095114 0.13072 0.096563 0.12932 0.097917 0.1284 0.099652 0.12706 0.1011 0.1258 0.10255 0.12451 0.10403 0.12315 0.10539 0.12205 0.107 0.12065 0.10836 0.11922 0.10966 0.11811 0.11126 0.11655 0.11248 0.11522 0.11383 0.11403 0.1154 0.11256 0.11665 0.11116 0.118 0.10977 0.11934 0.10825 0.12055 0.10694 0.12196 0.10555 0.12334 0.10393 0.12442 0.10255 0.12578 0.101 0.12696 0.099599 0.12829 0.098152 0.12963 0.096493 0.13065 0.095114 0.13206 0.093488 0.13317 0.091774 0.1341 0.090424 0.13557 0.088847 0.13678 0.087131 0.13773 0.085562 0.13892 0.083848 0.1399 0.082341 0.14118 0.080652 0.14227 0.079002 0.14332 0.077288 0.14438 0.075615 0.14541 0.073995 0.14668 0.072144 0.14744 0.070369 0.14835 0.068778 0.14965 0.06691 0.15048 0.065182 0.15147 0.063356 0.15243 0.061546 0.15326 0.059853 0.15458 0.057914 0.15524 0.056043 0.15604 0.054174 0.15689 0.052361 0.15791 0.050501 0.1589 0.048514 0.15949 0.046614 0.16031 0.044712 0.16125 0.04274 0.16192 0.040804 0.16277 0.038844 0.16359 0.036832 0.16424 0.034839 0.16497 0.032852 0.16582 0.030799 0.16644 0.028724 0.16689 0.026707 0.16766 0.024654 0.16845 0.022543 0.16887 0.020478 0.16955 0.018376 0.17029 0.016232 0.17062 0.014113 0.1711 0.012 0.17198 0.0098058 0.17224 0.0076697 0.17267 0.0054798 0.17327 0.0033064 0.17366 0.0010943 0.17408-0.0010943 0.17408-0.0033063 0.17368-0.00548 0.17327-0.0076702 0.17268-0.009806 0.17223-0.011998 0.17195-0.014112 0.17112-0.016234 0.17064-0.018376 0.17029-0.020481 0.16957-0.02254 0.16883-0.024649 0.16844-0.026711 0.16769-0.028724 0.16689-0.030799 0.16644-0.032852 0.16582-0.034839 0.16497-0.036842 0.16429-0.038845 0.16358-0.040781 0.16268-0.042752 0.16199-0.044712 0.16122-0.046599 0.16028-0.04853 0.15954-0.050501 0.1589-0.052361 0.15791-0.054174 0.15689-0.056066 0.15611-0.057916 0.15522-0.059803 0.15445-0.061571 0.15335-0.063356 0.15241-0.065151 0.15142-0.066942 0.15054-0.068778 0.14965-0.070369 0.14835-0.072183 0.14752-0.073997 0.14666-0.075575 0.14534-0.077244 0.1443-0.079 0.14334-0.080698 0.14235-0.082341 0.14118-0.083848 0.1399-0.085562 0.13892-0.087187 0.13782-0.088849 0.13676-0.090304 0.13539-0.091836 0.13421-0.093488 0.13315-0.095047 0.13198-0.096631 0.13084-0.098082 0.12952-0.099599 0.12831-0.101 0.12694-0.10255 0.1258-0.10393 0.1244-0.10546 0.12327-0.10702 0.12205-0.10834 0.12065-0.10978 0.11932-0.11107 0.1179-0.11246 0.11656-0.11402 0.11542-0.11542 0.11402-0.11656 0.11246-0.1179 0.11107-0.11932 0.10978-0.12065 0.10834-0.12194 0.10693-0.12338 0.10558-0.1244 0.10391-0.1258 0.10257-0.12706 0.10108-0.12828 0.099578-0.12944 0.09801-0.13072 0.096563-0.13208 0.095114-0.13315 0.093488-0.13421 0.091836-0.13539 0.090304-0.13676 0.088849-0.13791 0.087242-0.13886 0.085507-0.1398 0.083798-0.14127 0.082392-0.14235 0.080698-0.14334 0.079-0.1443 0.077244-0.14534 0.075575-0.14666 0.073997-0.14744 0.072142-0.14845 0.070428-0.14972 0.068797-0.15046 0.066903-0.15126 0.065081-0.15257 0.063445-0.15351 0.061617-0.15428 0.059739-0.15522 0.057916-0.15611 0.056066-0.15689 0.054174-0.15791 0.052361-0.15873 0.050446-0.15954 0.04855-0.16063 0.046701-0.16122 0.044691-0.16181 0.042705-0.16268 0.040781-0.16358 0.038845-0.16429 0.036842-0.16497 0.034839-0.16582 0.032852-0.16626 0.030766-0.16707 0.028776-0.16787 0.026719-0.16826 0.024623-0.16883 0.02254-0.16959 0.020483-0.17029 0.018374-0.1706 0.016232-0.17114 0.014114-0.17178 0.011986-0.17242 0.0098368-0.17284 0.007657-0.1731 0.0054744-0.17368 0.0033063-0.17408 0.0010943zm0-6l0.098118-0.0006168 0.0977-0.0018599 0.097424-0.0030812 0.096792-0.0042879 0.096358-0.0054974 0.096078-0.0067042 0.095797-0.0079004 0.095348-0.0090723 0.094734-0.010222 0.094411-0.011403 0.094156-0.012571 0.093707-0.013713 0.093039-0.014808 0.092756-0.015976 0.092479-0.017113 0.091796-0.018186 0.091502-0.019324 0.091032-0.020415 0.090558-0.021505 0.090268-0.022629 0.089921-0.023732 0.089256-0.024741 0.0886-0.025759 0.088406-0.026903 0.087904-0.027937 0.087407-0.028983 0.087073-0.030066 0.086509-0.03107 0.085983-0.032082 0.08554-0.033122 0.084892-0.034074 0.08435-0.035076 0.084219-0.036237 0.083538-0.037146 0.082731-0.038016 0.082518-0.039149 0.081952-0.0401 0.08115-0.040944 0.080894-0.042065 0.080318-0.042995 0.079662-0.043904 0.078978-0.044773 0.078378-0.045712 0.07814-0.046839 0.077402-0.047664 0.076607-0.048463 0.075974-0.049356 0.075568-0.050402 0.074977-0.051306 0.074189-0.052089 0.073454-0.052897 0.072901-0.053851 0.072339-0.054773 0.071592-0.055574 0.070874-0.056381 0.070217-0.057251 0.069614-0.05815 0.068695-0.058785 0.068094-0.059711 0.067374-0.0605 0.066633-0.061303 0.066007-0.06218 0.065251-0.06296 0.064313-0.063536 0.063536-0.064313 0.06296-0.065251 0.06218-0.066007 0.061303-0.066633 0.0605-0.067374 0.059613-0.067983 0.058869-0.068806 0.058161-0.069614 0.057239-0.070217 0.056488-0.070994 0.055553-0.071565 0.054701-0.072232 0.053783-0.072821 0.052965-0.073548 0.052089-0.074189 0.051306-0.074977 0.050402-0.075568 0.049356-0.075974 0.048517-0.076694 0.047609-0.077302 0.046789-0.078068 0.045762-0.078464 0.044773-0.078978 0.043904-0.079662 0.042995-0.080318 0.042065-0.080894 0.040944-0.08115 0.04006-0.08187 0.039175-0.082586 0.038068-0.082831 0.037108-0.083451 0.036167-0.084056 0.035132-0.084513 0.034152-0.085058 0.033058-0.085374 0.032082-0.085983 0.03107-0.086509 0.030066-0.087073 0.028983-0.087407 0.027882-0.08773 0.026891-0.088405 0.025861-0.08895 0.024753-0.089257 0.023685-0.089744 0.022629-0.090268 0.021505-0.090558 0.020415-0.091032 0.019324-0.091502 0.018186-0.091796 0.017079-0.092297 0.015996-0.092938 0.014849-0.093222 0.013686-0.093524 0.012571-0.094156 0.011405-0.094431 0.010219-0.094701 0.0090709-0.095344 0.0079019-0.095815 0.0066922-0.095906 0.0054953-0.096516 0.0043076-0.096981 0.0030756-0.097249 0.0018599-0.0977 0.0006168-0.098118-0.00061678-0.098115-0.0018598-0.097684-0.0030757-0.097253-0.0043081-0.096991-0.0054956-0.096533-0.0066904-0.09588-0.0079015-0.095798-0.0090723-0.09536-0.010219-0.094701-0.011408-0.094456-0.012568-0.094146-0.013682-0.093484-0.014853-0.093248-0.015996-0.092938-0.017079-0.092297-0.018186-0.091796-0.019324-0.091502-0.020424-0.091075-0.021506-0.090575-0.022606-0.090179-0.023697-0.089777-0.024753-0.089268-0.025845-0.088885-0.026907-0.088456-0.027882-0.08773-0.028983-0.087407-0.030066-0.087073-0.031092-0.086572-0.032084-0.085999-0.033008-0.085244-0.034178-0.085111-0.035132-0.084525-0.036136-0.083973-0.037138-0.083521-0.038068-0.082831-0.039175-0.082586-0.040098-0.081948-0.040946-0.081166-0.042024-0.080816-0.04295-0.080235-0.043902-0.079646-0.044819-0.07906-0.045762-0.078464-0.046789-0.078068-0.047609-0.077302-0.048574-0.076783-0.049359-0.075989-0.050282-0.075388-0.051367-0.075055-0.052089-0.074201-0.052897-0.073442-0.053921-0.073007-0.054631-0.072151-0.055553-0.071553-0.056488-0.071006-0.057239-0.070206-0.058161-0.069626-0.058785-0.068697-0.059696-0.068078-0.060589-0.067473-0.061305-0.066647-0.06209-0.06591-0.062865-0.065153-0.063533-0.064299-0.064511-0.063731-0.065254-0.062974-0.0658-0.061985-0.066737-0.061388-0.067374-0.060512-0.067983-0.059601-0.06892-0.058978-0.0695-0.058066-0.070217-0.057239-0.070874-0.056392-0.071469-0.055467-0.072462-0.054866-0.072901-0.053851-0.073454-0.052897-0.07432-0.052181-0.074846-0.051228-0.075432-0.0503-0.076109-0.049445-0.076747-0.048551-0.077404-0.047677-0.077854-0.046668-0.078522-0.045784-0.078978-0.044785-0.079662-0.043892-0.080318-0.043007-0.08074-0.041973-0.081458-0.0411-0.081797-0.040036-0.08236-0.039062-0.083049-0.038162-0.083378-0.037087-0.084056-0.036155-0.084513-0.035144-0.084892-0.034074-0.085708-0.033187-0.085985-0.032095-0.08634-0.031009-0.086902-0.030007-0.087578-0.029028-0.087904-0.027949-0.088231-0.026838-0.08895-0.025861-0.089257-0.024753-0.089744-0.023685-0.09009-0.022584-0.090557-0.021493-0.091212-0.020455-0.091502-0.019324-0.091977-0.018222-0.092298-0.017091-0.092574-0.015933-0.093403-0.014866-0.093707-0.013725-0.093791-0.012522-0.094411-0.011391-0.0951-0.010261-0.095348-0.0090842-0.095431-0.0078702-0.096078-0.0066924-0.096542-0.0055079-0.096974-0.004296-0.097242-0.0030872-0.097699-0.0018481-0.098119-0.00062866-0.098119 0.00062866-0.097699 0.0018481-0.097242 0.0030872-0.096974 0.004296-0.096542 0.0055079-0.096063 0.0066914-0.095432 0.0078713-0.09536 0.0090842-0.095067 0.010259-0.094455 0.011396-0.093807 0.012522-0.093654 0.013717-0.093387 0.014866-0.092603 0.015938-0.092298 0.017091-0.091977 0.018222-0.091542 0.019333-0.091228 0.020456-0.090517 0.021484-0.09009 0.022584-0.089744 0.023685-0.089206 0.024739-0.088934 0.025859-0.088282 0.026854-0.087904 0.027949-0.087637 0.029048-0.086857 0.029987-0.086328 0.031009-0.086061 0.032119-0.085578 0.033137-0.084945 0.0341-0.084595 0.035173-0.083916 0.036095-0.083436 0.037118-0.083061 0.038162-0.082271 0.039026-0.08195 0.040111-0.081474 0.041102-0.080663 0.041933-0.080236 0.042962-0.079646 0.04389-0.07906 0.044831-0.078608 0.045834-0.07787 0.04667-0.07723 0.04757-0.076822 0.048606-0.076212 0.049503-0.075344 0.050241-0.074846 0.051228-0.074227 0.052116-0.073533 0.052963-0.073007 0.053921-0.072369 0.054796-0.071469 0.055467-0.070777 0.056316-0.0703 0.057316-0.069512 0.058066-0.068908 0.058978-0.067994 0.059601-0.067363 0.060512-0.066848 0.061478-0.065703 0.061894-0.065155 0.062879-0.064595 0.063826-0.063644 0.064399-0.062768 0.065053-0.061991 0.065806-0.06139 0.066752-0.0606 0.067473-0.059685 0.068078-0.058895 0.06881-0.058066 0.069512-0.057239 0.070206-0.056392 0.070885-0.055539 0.071551-0.054724 0.072274-0.053921 0.073007-0.05299 0.073572-0.052102 0.074203-0.051185 0.07479-0.050269 0.075386-0.049447 0.076124-0.048662 0.076923-0.047622 0.077304-0.046618 0.077782-0.045834 0.078608-0.044831 0.07906-0.04389 0.079646-0.042962 0.080236-0.041933 0.080663-0.041102 0.081474-0.040111 0.08195-0.039026 0.082271-0.038129 0.08299-0.03715 0.083521-0.036124 0.083972-0.035143 0.084525-0.0341 0.084945-0.033137 0.085578-0.032096 0.086-0.031032 0.086403-0.030007 0.086902-0.029028 0.087578-0.027949 0.087904-0.026854 0.088282-0.025845 0.088885-0.024753 0.089268-0.023697 0.089777-0.022562 0.090001-0.021494 0.090574-0.020464 0.091254-0.019324 0.091502-0.018222 0.091977-0.017091 0.092298-0.015964 0.092756-0.014853 0.093248-0.013682 0.093484-0.012543 0.093963-0.011418 0.094638-0.010251 0.094884-0.0090549 0.095176-0.0078864 0.095616-0.0066914 0.096063-0.0055074 0.096534-0.0042962 0.09699-0.0030876 0.097254-0.001848 0.097683-0.00062864 0.098115 0.00062866 0.098119 0.0018481 0.097699 0.0030875 0.09725 0.0042957 0.09698 0.0055072 0.096517 0.0066931 0.096088 0.0078868 0.095632 0.0090534 0.095161 0.010251 0.094884 0.011415 0.094613 0.012546 0.093974 0.013686 0.093524 0.014849 0.093222 0.015964 0.092756 0.017091 0.092298 0.018222 0.091977 0.019324 0.091502 0.020455 0.091212 0.021493 0.090557 0.022584 0.09009 0.023685 0.089744 0.024753 0.089257 0.025861 0.08895 0.026838 0.088231 0.027949 0.087904 0.029028 0.087578 0.030007 0.086902 0.031009 0.08634 0.032095 0.085985 0.033187 0.085708 0.034074 0.084892 0.035144 0.084513 0.036155 0.084056 0.03712 0.083451 0.038129 0.08299 0.039026 0.082271 0.040073 0.081872 0.0411 0.081458 0.041973 0.08074 0.043007 0.080318 0.043892 0.079662 0.044785 0.078978 0.045834 0.078608 0.046618 0.077782 0.047622 0.077304 0.048606 0.076833 0.049445 0.076109 0.050389 0.075565 0.051124 0.074712 0.052102 0.074191 0.053058 0.073677 0.053783 0.072821 0.054794 0.072355 0.055539 0.071562 0.056392 0.070874 0.057239 0.070217 0.058066 0.0695 0.058978 0.06892 0.059601 0.067983 0.060512 0.067374 0.061388 0.066737 0.062082 0.065902 0.062864 0.065151 0.063646 0.064413 0.064398 0.063631 0.065153 0.062865 0.06591 0.06209 0.066743 0.061394 0.067363 0.0605 0.068106 0.059711 0.068683 0.058785 0.069626 0.05815 0.0703 0.057328 0.070777 0.056304 0.071592 0.055574 0.072246 0.054703 0.073007 0.053921 0.073533 0.052963 0.074096 0.052023 0.074977 0.051306 0.075479 0.050343 0.076076 0.049415 0.076682 0.048517 0.077228 0.047557 0.078155 0.046841 0.078464 0.045762 0.07906 0.044819 0.079646 0.043902 0.080235 0.04295 0.080816 0.042024 0.081166 0.040946 0.082105 0.040175 0.08243 0.039112 0.082742 0.038016 0.083596 0.037177 0.08408 0.036177 0.084432 0.035105 0.084945 0.0341 0.085411 0.033072 0.08606 0.032106 0.086498 0.03107 0.087028 0.030046 0.087466 0.029003 0.087904 0.027937 0.088457 0.026919 0.088583 0.025757 0.089204 0.024727 0.089921 0.023732 0.090268 0.022629 0.090518 0.021496 0.091049 0.020416 0.091542 0.019333 0.091796 0.018186 0.092479 0.017113 0.092786 0.015981 0.093022 0.014808 0.093653 0.013705 0.094173 0.012571 0.094456 0.011408 0.094701 0.010219 0.09536 0.0090723 0.095798 0.0079015 0.096063 0.0067032 0.096358 0.0054974 0.096792 0.0042879 0.097424 0.0030812 0.0977 0.0018599 0.098118 0.0006168z"/><path d="m237.35 282.98h-0.019662v-6h44v6h-37.98v114.81h-6v-114.81z"/><path d="m293.99 294.15l-0.17427-0.0010955-0.17366-0.0033276-0.1727-0.0054624-0.17287-0.0076352-0.17262-0.0098481-0.17199-0.012001-0.17088-0.014118-0.17064-0.016211-0.17027-0.018397-0.16957-0.020457-0.16888-0.022568-0.16803-0.024571-0.16805-0.026743-0.16731-0.028818-0.16603-0.030747-0.16563-0.032787-0.16514-0.034876-0.16434-0.036851-0.16338-0.038802-0.16293-0.040817-0.1619-0.042761-0.16109-0.044642-0.16082-0.046767-0.15951-0.048556-0.15819-0.05028-0.15822-0.052413-0.15735-0.054374-0.15546-0.055839-0.15519-0.05787-0.15464-0.059878-0.1535-0.061619-0.15234-0.06335-0.15165-0.065231-0.15045-0.066952-0.14944-0.068649-0.1485-0.070461-0.14742-0.072125-0.14652-0.073937-0.14528-0.075513-0.14476-0.077492-0.14318-0.078941-0.14206-0.080513-0.1416-0.082576-0.13973-0.083786-0.13875-0.08542-0.13794-0.087276-0.1366-0.088732-0.13559-0.090422-0.13418-0.091836-0.13327-0.093553-0.13207-0.095141-0.13045-0.09635-0.12982-0.098273-0.12815-0.099529-0.12675-0.10079-0.12592-0.10267-0.12467-0.10412-0.12353-0.10575-0.1216-0.10665-0.12057-0.10824-0.11924-0.1097-0.11812-0.11123-0.11673-0.11268-0.11503-0.11364-0.11403-0.11538-0.11268-0.11678-0.11125-0.11809-0.10965-0.11923-0.10826-0.12054-0.10703-0.12208-0.10538-0.12315-0.10394-0.1244-0.10263-0.12588-0.10117-0.12717-0.099482-0.12818-0.098031-0.12944-0.096636-0.13085-0.094902-0.13178-0.093462-0.13308-0.092198-0.13472-0.090265-0.13542-0.088673-0.13647-0.087099-0.1377-0.085529-0.13882-0.084122-0.14036-0.082234-0.14106-0.080624-0.14218-0.078899-0.14318-0.077372-0.14446-0.07575-0.14573-0.073821-0.14633-0.072087-0.1473-0.070468-0.14851-0.068865-0.14986-0.066973-0.15064-0.06503-0.15119-0.06335-0.15234-0.061619-0.1535-0.0597-0.15418-0.057959-0.15528-0.056125-0.15629-0.054133-0.15677-0.05238-0.15795-0.050501-0.15892-0.048514-0.15947-0.046563-0.16016-0.044781-0.1614-0.042719-0.16194-0.040859-0.16288-0.038864-0.16386-0.036751-0.1639-0.034785-0.16471-0.032844-0.16566-0.030893-0.16686-0.028754-0.16719-0.026637-0.16734-0.024621-0.16812-0.022604-0.16914-0.020507-0.16994-0.018316-0.16995-0.016219-0.17023-0.01418-0.17168-0.011957-0.17196-0.0098055-0.17187-0.0076783-0.17285-0.0054857-0.17348-0.0032784-0.17329-0.0011376-0.17426 0.0011376-0.17426 0.0032784-0.17329 0.0054857-0.17348 0.0076783-0.17285 0.0098055-0.17187 0.011957-0.17196 0.01418-0.17168 0.016219-0.17023 0.018316-0.16995 0.020507-0.16994 0.022604-0.16914 0.024621-0.16812 0.026637-0.16734 0.028754-0.16719 0.030893-0.16686 0.032844-0.16566 0.034785-0.16471 0.036751-0.1639 0.038864-0.16386 0.040859-0.16288 0.042719-0.16194 0.044781-0.1614 0.046563-0.16016 0.048514-0.15947 0.050501-0.15892 0.05238-0.15795 0.054133-0.15677 0.056125-0.15629 0.057959-0.15528 0.0597-0.15418 0.061619-0.1535 0.06335-0.15234 0.06503-0.15119 0.066973-0.15064 0.068865-0.14986 0.070468-0.14851 0.072048-0.14722 0.073859-0.14643 0.075792-0.14579 0.07733-0.14438 0.078853-0.14309 0.080671-0.14228 0.082335-0.14121 0.083969-0.14008 0.085527-0.13886 0.087153-0.13777 0.088673-0.13649 0.090265-0.1354 0.092199-0.13474 0.093592-0.13324 0.094771-0.13158 0.096566-0.13078 0.098101-0.12953 0.099557-0.12828 0.1011-0.12706 0.10255-0.1258 0.10402-0.1245 0.10538-0.12315 0.10703-0.12208 0.10835-0.12064 0.10956-0.11911 0.11125-0.11812 0.11268-0.11675 0.11383-0.1152 0.11522-0.11385 0.11673-0.11265 0.11812-0.11125 0.11924-0.10968 0.12057-0.10826 0.12183-0.10682 0.12342-0.10564 0.12455-0.10403 0.12569-0.10247 0.12686-0.10093 0.12827-0.099602 0.12982-0.098294 0.1307-0.096517 0.13182-0.094936 0.13314-0.093482 0.13432-0.091926 0.13559-0.090422 0.1366-0.088732 0.1378-0.087187 0.13903-0.085614 0.13987-0.083832 0.14102-0.082238 0.1422-0.080637 0.14347-0.079084 0.14461-0.077412 0.14528-0.075513 0.14636-0.073859 0.14758-0.072222 0.1485-0.07044 0.1496-0.068743 0.15045-0.06691 0.15149-0.065182 0.15234-0.063329 0.15333-0.061573 0.15464-0.059878 0.15519-0.05789 0.15596-0.056022 0.15701-0.054214 0.15787-0.052341 0.15888-0.050501 0.15951-0.048514 0.16029-0.046614 0.16127-0.044712 0.1619-0.04274 0.16275-0.040793 0.16355-0.038845 0.16434-0.036851 0.16496-0.034838 0.16581-0.032844 0.16639-0.030794 0.16695-0.028734 0.16768-0.026706 0.1684-0.024646 0.16888-0.022547 0.16957-0.020478 0.17027-0.018376 0.17064-0.016232 0.17107-0.014112 0.17199-0.012001 0.17225-0.0098062 0.17268-0.0076693 0.17324-0.0054797 0.17367-0.0033065 0.17408-0.0010943 0.17408 0.0010943 0.1737 0.0033063 0.17325 0.00548 0.17271 0.0076702 0.17222 0.0098068 0.17194 0.011998 0.1711 0.014111 0.17067 0.016235 0.17027 0.018376 0.16957 0.020478 0.16888 0.022547 0.1684 0.024646 0.16768 0.026706 0.16695 0.028734 0.16639 0.030794 0.16581 0.032844 0.16504 0.034855 0.16423 0.036834 0.1636 0.038845 0.16271 0.040793 0.16194 0.04274 0.16122 0.044712 0.16023 0.046583 0.15961 0.048545 0.15888 0.050501 0.15787 0.052341 0.15701 0.054214 0.15609 0.056067 0.15516 0.057893 0.15438 0.059777 0.15336 0.06157 0.15248 0.063384 0.15149 0.065182 0.1506 0.066976 0.14941 0.068678 0.14839 0.070368 0.14773 0.072295 0.14652 0.07394 0.14524 0.075517 0.14429 0.077239 0.14351 0.07908 0.14237 0.080729 0.14102 0.082238 0.13987 0.083832 0.13903 0.085614 0.1378 0.087187 0.13678 0.088849 0.13537 0.090304 0.13436 0.091926 0.13309 0.093482 0.13186 0.094936 0.13085 0.096657 0.12944 0.09801 0.1283 0.099597 0.12705 0.10108 0.12588 0.10263 0.12432 0.10387 0.12327 0.10547 0.12202 0.10699 0.12057 0.10826 0.11944 0.10986 0.11788 0.11107 0.11658 0.11246 0.11542 0.11404 0.11403 0.1154 0.11244 0.11655 0.11109 0.1179 0.10976 0.11932 0.10835 0.12064 0.10703 0.12208 0.10538 0.12315 0.10402 0.1245 0.10255 0.1258 0.1011 0.12706 0.099557 0.12828 0.098101 0.12953 0.096566 0.13078 0.094957 0.13184 0.093553 0.13325 0.091836 0.13421 0.090304 0.13539 0.088849 0.13676 0.087153 0.13777 0.085527 0.13886 0.083969 0.14008 0.082335 0.14121 0.080671 0.14228 0.079018 0.14339 0.077127 0.14408 0.075674 0.14549 0.074014 0.14674 0.072048 0.14722 0.070468 0.14851 0.068865 0.14986 0.066973 0.15064 0.06503 0.15119 0.06335 0.15234 0.061619 0.1535 0.0597 0.15418 0.057959 0.15528 0.056125 0.15629 0.054133 0.15677 0.05238 0.15795 0.050501 0.15892 0.048514 0.15947 0.046665 0.16051 0.044642 0.16105 0.042761 0.16194 0.040817 0.16288 0.038821 0.1635 0.036832 0.16426 0.034785 0.16471 0.032916 0.16602 0.030784 0.1665 0.028734 0.16683 0.026695 0.1677 0.024674 0.16849 0.022513 0.16878 0.020505 0.16958 0.018355 0.17031 0.016254 0.1706 0.014108 0.17132 0.011974 0.17159 0.0098264 0.17224 0.0076783 0.17285 0.0054857 0.17348 0.0032852 0.17365 0.0010932 0.1739-0.0010932 0.1739-0.0032852 0.17365-0.0054857 0.17348-0.0076783 0.17285-0.0098264 0.17224-0.011974 0.17159-0.014108 0.17132-0.016254 0.1706-0.018355 0.17031-0.020505 0.16958-0.022513 0.16878-0.024674 0.16849-0.026695 0.1677-0.028734 0.16683-0.030784 0.1665-0.032916 0.16602-0.034785 0.16471-0.036832 0.16426-0.038821 0.1635-0.040817 0.16288-0.042761 0.16194-0.044642 0.16105-0.046665 0.16051-0.048514 0.15947-0.050501 0.15892-0.05238 0.15795-0.054133 0.15677-0.056125 0.15629-0.057959 0.15528-0.0597 0.15418-0.061619 0.1535-0.06335 0.15234-0.06503 0.15119-0.066973 0.15064-0.068865 0.14986-0.070468 0.14851-0.072087 0.1473-0.073976 0.14664-0.075632 0.14543-0.077169 0.14416-0.079064 0.14348-0.080624 0.14218-0.082234 0.14106-0.084122 0.14036-0.085529 0.13882-0.087099 0.1377-0.088849 0.13674-0.090305 0.13542-0.091836 0.13418-0.093422 0.13308-0.095088 0.13204-0.096636 0.13085-0.098031 0.12944-0.099482 0.12818-0.10117 0.12717-0.10263 0.12588-0.10394 0.1244-0.10538 0.12315-0.10703 0.12208-0.10826 0.12054-0.10984 0.11944-0.11109 0.11788-0.11244 0.11658-0.11422 0.11558-0.11522 0.11383-0.11658 0.11248-0.11788 0.11105-0.11944 0.10988-0.12057 0.10824-0.1218 0.10682-0.12338 0.10558-0.12444 0.10396-0.12612 0.10282-0.12694 0.10094-0.12818 0.099524-0.12944 0.097989-0.1306 0.09649-0.13211 0.095141-0.13322 0.093553-0.13423 0.091836-0.13537 0.090304-0.13678 0.088849-0.13794 0.087276-0.13875 0.08542-0.13973 0.083786-0.1416 0.082576-0.14222 0.080606-0.14321 0.078937-0.14444 0.077319-0.14524 0.075517-0.14668 0.074018-0.14757 0.072198-0.14839 0.070389-0.14925 0.068583-0.1506 0.067017-0.15165 0.065231-0.15248 0.063405-0.15353 0.061615-0.15438 0.059778-0.15516 0.057873-0.15558 0.055884-0.15735 0.054374-0.15822 0.052413-0.15819 0.05028-0.15961 0.048587-0.16075 0.046736-0.16105 0.044642-0.16194 0.042761-0.16288 0.040817-0.16342 0.038802-0.16423 0.036834-0.16522 0.034894-0.16563 0.032787-0.16603 0.030747-0.16731 0.028818-0.16805 0.026743-0.16803 0.024571-0.16888 0.022568-0.16957 0.020457-0.17027 0.018397-0.17067 0.016214-0.17092 0.014117-0.17194 0.011998-0.17258 0.0098487-0.17289 0.0076362-0.1727 0.0054626-0.1737 0.0033274-0.17426 0.0010954zm0-6l0.09794-0.00061568 0.097711-0.0018718 0.097784-0.0030929 0.096809-0.0042758 0.096127-0.0054856 0.095916-0.0066929 0.096016-0.0079303 0.09534-0.0090576 0.09469-0.010231 0.094466-0.011396 0.094108-0.012576 0.093901-0.013731 0.0929-0.014784 0.092512-0.015934 0.09268-0.017164 0.092026-0.018217 0.091245-0.01927 0.091059-0.020423 0.090749-0.021548 0.090031-0.02256 0.089789-0.023709 0.089432-0.02479 0.088478-0.025723 0.088368-0.0269 0.088411-0.028102 0.087132-0.028865 0.086616-0.029931 0.087002-0.031251 0.086042-0.032093 0.085439-0.033083 0.084908-0.034076 0.084447-0.035116 0.083822-0.036054 0.083364-0.037098 0.083197-0.03823 0.082614-0.039189 0.081784-0.040012 0.081162-0.040956 0.080952-0.04209 0.080178-0.04292 0.079827-0.044 0.079103-0.044832 0.078014-0.045494 0.078242-0.046916 0.07751-0.047718 0.076542-0.048429 0.075985-0.049356 0.075556-0.050402 0.074989-0.051306 0.074084-0.052023 0.073417-0.052871 0.073028-0.053957 0.072339-0.054761 0.071688-0.055661 0.071028-0.056483 0.069872-0.056967 0.069579-0.058132 0.068728-0.058815 0.068205-0.059818 0.067459-0.060565 0.066548-0.061226 0.065995-0.062168 0.065262-0.062971 0.064512-0.063732 0.063337-0.064088 0.06295-0.065264 0.062192-0.065995 0.061203-0.066548 0.060612-0.067486 0.059603-0.067983 0.05895-0.06889 0.058159-0.069611 0.05716-0.070108 0.056318-0.070792 0.055637-0.071688 0.054785-0.072339 0.053745-0.072773 0.052923-0.07349 0.052154-0.074294 0.051306-0.074966 0.050402-0.075579 0.049356-0.075962 0.048606-0.076845 0.047675-0.077377 0.046515-0.077611 0.045836-0.078624 0.044879-0.079145 0.043808-0.079497 0.04307-0.080458 0.04204-0.080835 0.040932-0.081138 0.040189-0.082121 0.039109-0.082423 0.037949-0.082584 0.037076-0.083392 0.036255-0.08429 0.035171-0.084579 0.034072-0.084876 0.033161-0.085641 0.032072-0.085924 0.03101-0.086356 0.030106-0.087191 0.028964-0.087336 0.027882-0.087742 0.026907-0.088444 0.025794-0.088721 0.02479-0.089432 0.023709-0.089789 0.02256-0.090031 0.021528-0.090668 0.020425-0.091091 0.019378-0.091758 0.018154-0.091566 0.017061-0.092277 0.016018-0.093001 0.014832-0.093178 0.013694-0.093512 0.012565-0.094204 0.011414-0.094396 0.010207-0.094711 0.0090842-0.095349 0.0078735-0.095614 0.006717-0.096261 0.0055078-0.096541 0.0042995-0.096786 0.0030699-0.097079 0.0018481-0.097689 0.00061792-0.098296-0.00061792-0.098296-0.0018481-0.097689-0.0030699-0.097079-0.0042995-0.096786-0.0055078-0.096541-0.006717-0.096261-0.0078735-0.095614-0.0090842-0.095349-0.010207-0.094711-0.011414-0.094396-0.012565-0.094204-0.013694-0.093512-0.014832-0.093178-0.016018-0.093001-0.017061-0.092277-0.018154-0.091566-0.019378-0.091758-0.020425-0.091091-0.021528-0.090668-0.02256-0.090031-0.023709-0.089789-0.02479-0.089432-0.025794-0.088721-0.026907-0.088444-0.027882-0.087742-0.028964-0.087336-0.030106-0.087191-0.03101-0.086356-0.032072-0.085924-0.033161-0.085641-0.034072-0.084876-0.035171-0.084579-0.036255-0.08429-0.037076-0.083392-0.037949-0.082584-0.039109-0.082423-0.040227-0.082199-0.040894-0.081074-0.041998-0.080742-0.043112-0.080536-0.043854-0.07958-0.044833-0.079075-0.045736-0.078439-0.046668-0.077854-0.047677-0.077404-0.048551-0.076747-0.049356-0.075974-0.050402-0.075568-0.051306-0.074977-0.052023-0.074096-0.053054-0.07366-0.053815-0.07288-0.054715-0.072247-0.055562-0.071592-0.056392-0.070874-0.057239-0.070217-0.05808-0.069517-0.05895-0.06889-0.059603-0.067983-0.060524-0.067388-0.061291-0.066633-0.062192-0.066007-0.06295-0.065253-0.063532-0.064298-0.064316-0.063551-0.065262-0.062959-0.065995-0.06218-0.066548-0.061215-0.067459-0.060576-0.067982-0.059611-0.068837-0.058897-0.069692-0.058227-0.070108-0.05716-0.070912-0.056414-0.071568-0.055555-0.072339-0.054773-0.072774-0.053757-0.073672-0.053042-0.074216-0.052128-0.074858-0.051216-0.075556-0.050402-0.075985-0.049356-0.076682-0.048517-0.077228-0.047557-0.078095-0.046805-0.078593-0.045832-0.07896-0.044774-0.079529-0.043824-0.080328-0.043-0.080952-0.04209-0.081317-0.041034-0.081629-0.039948-0.082614-0.039177-0.083037-0.038168-0.083362-0.037073-0.083984-0.036136-0.084447-0.035104-0.085074-0.034154-0.08544-0.033084-0.086044-0.032105-0.086493-0.031068-0.086955-0.030025-0.087478-0.029003-0.087718-0.027882-0.088366-0.026876-0.089003-0.025876-0.089257-0.024753-0.089789-0.023697-0.09021-0.022617-0.09057-0.021505-0.091059-0.020423-0.091426-0.019308-0.091846-0.018193-0.092317-0.017085-0.092875-0.015985-0.093265-0.014854-0.093537-0.01369-0.094108-0.012564-0.094467-0.011408-0.094689-0.010219-0.095341-0.0090694-0.095832-0.0079033-0.095916-0.0066929-0.096492-0.0054946-0.096992-0.0043076-0.097237-0.0030756-0.097711-0.0018599-0.098122-0.00061682-0.098115 0.00061678-0.097678 0.0018597-0.097244 0.0030758-0.097013 0.0043085-0.096524 0.0054951-0.095865 0.0066894-0.095799 0.0079026-0.095371 0.0090723-0.094689 0.010219-0.094467 0.011408-0.094108 0.012564-0.093537 0.01369-0.093265 0.014854-0.092875 0.015985-0.092317 0.017085-0.091846 0.018193-0.091506 0.019325-0.091006 0.020406-0.090547 0.021505-0.090233 0.022617-0.089765 0.023697-0.08928 0.024753-0.088874 0.025845-0.088468 0.026906-0.087718 0.027882-0.087478 0.029003-0.086955 0.030025-0.086619 0.031113-0.086075 0.032108-0.085182 0.032984-0.085042 0.034151-0.084579 0.035159-0.083984 0.036136-0.083509 0.037139-0.082918 0.038103-0.082437 0.039104-0.081778 0.04002-0.081476 0.041115-0.080983 0.042093-0.080005 0.042827-0.079499 0.04382-0.079122 0.044867-0.078593 0.045832-0.078095 0.046805-0.077228 0.047557-0.076682 0.048517-0.076166 0.049474-0.075403 0.050284-0.074834 0.051216-0.074239 0.052128-0.073648 0.053042-0.072986 0.053897-0.071963 0.054489-0.071538 0.055551-0.0711 0.056563-0.070302 0.057318-0.069527 0.058068-0.068618 0.058729-0.068173 0.059778-0.067459 0.060576-0.066746 0.061396-0.065826 0.061999-0.065041 0.062768-0.064509 0.063742-0.06373 0.064498-0.06278 0.065053-0.061971 0.065797-0.061484 0.066842-0.060524 0.067388-0.059603 0.067983-0.05895 0.06889-0.05808 0.069517-0.057239 0.070217-0.056392 0.070874-0.055562 0.071592-0.054715 0.072247-0.053815 0.07288-0.053241 0.073919-0.05205 0.0741-0.050943 0.074447-0.050376 0.075563-0.049533 0.076245-0.048551 0.076747-0.047677 0.077404-0.046668 0.077854-0.045736 0.078439-0.044833 0.079075-0.044019 0.07988-0.042975 0.080238-0.041815 0.080435-0.041049 0.081381-0.040227 0.082199-0.039109 0.082423-0.037949 0.082584-0.037076 0.083392-0.036255 0.08429-0.035171 0.084579-0.034072 0.084876-0.033161 0.085641-0.032072 0.085924-0.03101 0.086356-0.030106 0.087191-0.028964 0.087336-0.027882 0.087742-0.026907 0.088444-0.025896 0.089073-0.024716 0.089082-0.023685 0.089788-0.022584 0.090032-0.02142 0.090309-0.020506 0.09145-0.019378 0.091758-0.018226 0.091928-0.017018 0.091916-0.015932 0.092636-0.01489 0.093542-0.013748 0.093877-0.01254 0.09384-0.011346 0.094028-0.010247 0.095078-0.009119 0.095714-0.0078669 0.095249-0.0066678 0.095894-0.0055287 0.096907-0.0042995 0.096786-0.0030699 0.097079-0.001855 0.098052-0.00063932 0.097934 0.00063932 0.097934 0.001855 0.098052 0.0030699 0.097079 0.0042995 0.096786 0.0055287 0.096907 0.0066678 0.095894 0.0078669 0.095249 0.009119 0.095714 0.010247 0.095078 0.011346 0.094028 0.01254 0.09384 0.013748 0.093877 0.01489 0.093542 0.015932 0.092636 0.017018 0.091916 0.018226 0.091928 0.019378 0.091758 0.020506 0.09145 0.02142 0.090309 0.022584 0.090032 0.023685 0.089788 0.024716 0.089082 0.025896 0.089073 0.026907 0.088444 0.027882 0.087742 0.028964 0.087336 0.030106 0.087191 0.03101 0.086356 0.032072 0.085924 0.033161 0.085641 0.034072 0.084876 0.035171 0.084579 0.036255 0.08429 0.037076 0.083392 0.037949 0.082584 0.039109 0.082423 0.040189 0.082121 0.041087 0.081445 0.041857 0.080528 0.042933 0.080159 0.043972 0.079796 0.044879 0.079145 0.045836 0.078624 0.046515 0.077611 0.047675 0.077377 0.048606 0.076845 0.049533 0.076234 0.050375 0.075575 0.050943 0.074435 0.052181 0.074298 0.05311 0.073749 0.053745 0.072773 0.054785 0.072339 0.055637 0.071688 0.056318 0.070792 0.05716 0.070108 0.058159 0.069611 0.05895 0.06889 0.059603 0.067983 0.060612 0.067486 0.061395 0.066758 0.061971 0.065786 0.06278 0.065064 0.063535 0.064288 0.064705 0.063923 0.065041 0.06278 0.065826 0.061987 0.066746 0.061408 0.067459 0.060565 0.068396 0.059986 0.068508 0.058648 0.069413 0.057973 0.070066 0.057126 0.071216 0.056632 0.071659 0.055656 0.071963 0.054477 0.073241 0.054096 0.073394 0.052871 0.074107 0.052023 0.074966 0.051306 0.075403 0.050284 0.076166 0.049474 0.076542 0.048429 0.07751 0.047718 0.078242 0.046916 0.078014 0.045494 0.079266 0.044925 0.079796 0.043996 0.079856 0.042747 0.080983 0.042093 0.081321 0.041036 0.081932 0.040084 0.082437 0.039116 0.083078 0.038165 0.083511 0.037163 0.083822 0.036054 0.084579 0.035171 0.084876 0.034072 0.085181 0.032983 0.086074 0.032096 0.087129 0.031296 0.086616 0.029931 0.087132 0.028865 0.088411 0.028102 0.08847 0.026931 0.088348 0.025692 0.089456 0.02479 0.089766 0.023709 0.090054 0.02256 0.090726 0.021548 0.091006 0.020406 0.091326 0.019287 0.092026 0.018217 0.09268 0.017164 0.092512 0.015934 0.0929 0.014784 0.093901 0.013731 0.094108 0.012576 0.094466 0.011396 0.09469 0.010231 0.09537 0.0090604 0.095983 0.0079295 0.095865 0.0066893 0.09616 0.0054861 0.09683 0.0042768 0.097791 0.0030932 0.097678 0.0018716 0.097933 0.00061563z"/></g></svg>
